<svg xmlns="http://www.w3.org/2000/svg" style="display: none;">

  <!-- ICONO 1 -->
  <symbol id="clipboard" viewBox="0 0 24 24" fill="none">
    <g stroke="currentColor" stroke-width="1" stroke-linecap="round" stroke-linejoin="round">
      <rect width="8" height="4" x="8" y="2" rx="1" ry="1" />
      <path d="M16 4h2a2 2 0 0 1 2 2v14a2 2 0 0 1-2 2H6a2 2 0 0 1-2-2V6a2 2 0 0 1 2-2h2" />
      <path d="M12 11h4" />
      <path d="M12 16h4" />
      <path d="M8 11h.01" />
      <path d="M8 16h.01" />
    </g>
  </symbol>

  <!-- ICONO 2 -->
  <symbol id="solar-panel" viewBox="32 18 62 70">
    <g stroke="currentColor" stroke-width="2.5" fill="none" stroke-linecap="round"
      stroke-linejoin="round">
      <!-- Panel frame -->
      <rect x="34" y="32" width="46" height="34" />

      <!-- Grid lines -->
      <line x1="34" y1="43" x2="80" y2="43" />
      <line x1="34" y1="54" x2="80" y2="54" />
      <line x1="49" y1="32" x2="49" y2="66" />
      <line x1="64" y1="32" x2="64" y2="66" />

      <!-- Stand -->
      <line x1="57" y1="66" x2="52" y2="84" />
      <line x1="57" y1="66" x2="62" y2="84" />
      <line x1="45" y1="84" x2="69" y2="84" />

      <!-- Lightning bolt -->
      <polyline points="89,34 84,44 90,44 85,54" />

      <!-- Small rays -->
      <line x1="43" y1="24" x2="43" y2="30" />
      <line x1="57" y1="20" x2="57" y2="30" />
      <line x1="71" y1="24" x2="71" y2="30" />
    </g>

  </symbol>

  <symbol id="environment" viewBox="0 0 24 24" fill="none">
    <g stroke="currentColor" stroke-width="1" stroke-linecap="round" stroke-linejoin="round">
      <path
        d="M14 9.536V7a4 4 0 0 1 4-4h1.5a.5.5 0 0 1 .5.5V5a4 4 0 0 1-4 4 4 4 0 0 0-4 4c0 2 1 3 1 5a5 5 0 0 1-1 3" />
      <path d="M4 9a5 5 0 0 1 8 4 5 5 0 0 1-8-4" />
      <path d="M5 21h14" />
    </g>
  </symbol>

  <symbol id="location" viewBox="0 0 24 24" fill="none">
    <g stroke="currentColor" stroke-width="1" stroke-linecap="round" stroke-linejoin="round">
      <path
        d="M20 10c0 4.993-5.539 10.193-7.399 11.799a1 1 0 0 1-1.202 0C9.539 20.193 4 14.993 4 10a8 8 0 0 1 16 0" />
      <circle cx="12" cy="10" r="3" />
    </g>

  </symbol>


  <symbol id="time" viewBox="0 0 24 24" fill="none">
    <g stroke="currentColor" stroke-width="1" stroke-linecap="round" stroke-linejoin="round">
      <circle cx="12" cy="12" r="10" />
      <path d="M12 6v6l4 2" />

    </g>

  </symbol>

  <symbol id="shield" viewBox="0 0 24 24" fill="none">
    <g stroke="currentColor" stroke-width="1" stroke-linecap="round" stroke-linejoin="round">
      <path
        d="M20 13c0 5-3.5 7.5-7.66 8.95a1 1 0 0 1-.67-.01C7.5 20.5 4 18 4 13V6a1 1 0 0 1 1-1c2 0 4.5-1.2 6.24-2.72a1.17 1.17 0 0 1 1.52 0C14.51 3.81 17 5 19 5a1 1 0 0 1 1 1z" />
      <path d="m9 12 2 2 4-4" />
    </g>


  </symbol>

  <symbol id="menu" viewBox="0 0 24 24" fill="none">
    <g stroke="currentColor" stroke-width="1" stroke-linecap="round" stroke-linejoin="round">
      <path d="M4 5h16" />
      <path d="M4 12h16" />
      <path d="M4 19h16" />

    </g>


  </symbol>

  <symbol id="support" viewBox="0 0 24 24" fill="none">
    <g stroke="currentColor" stroke-width="1" stroke-linecap="round" stroke-linejoin="round">
      <path d="M18 21a8 8 0 0 0-16 0" />
      <circle cx="10" cy="8" r="5" />
      <path d="M22 20c0-3.37-2-6.5-4-8a5 5 0 0 0-.45-8.3" />
    </g>

  </symbol>

  <symbol id="quality" viewBox="0 0 24 24" fill="none">
    <g stroke="currentColor" stroke-width="1" stroke-linecap="round" stroke-linejoin="round"
    >
      <path
        d="m15.477 12.89 1.515 8.526a.5.5 0 0 1-.81.47l-3.58-2.687a1 1 0 0 0-1.197 0l-3.586 2.686a.5.5 0 0 1-.81-.469l1.514-8.526" />
      <circle cx="12" cy="8" r="6" />
    </g>
  </symbol>

  <symbol id="hard-hat" viewBox="0 0 24 24 " fill="none">
    <g stroke="currentColor" stroke-width="1" stroke-linecap="round" stroke-linejoin="round">

      <path d="M10 10V5a1 1 0 0 1 1-1h2a1 1 0 0 1 1 1v5" />
      <path d="M14 6a6 6 0 0 1 6 6v3" />
      <path d="M4 15v-3a6 6 0 0 1 6-6" />
      <rect x="2" y="15" width="20" height="4" rx="1" />
    </g>
  </symbol>

  <symbol id="arrow-right" viewBox="0 0 24 24" fill="none">
    <g stroke="currentColor" stroke-width="1" stroke-linecap="round" stroke-linejoin="round">
      <path d="M18 8L22 12L18 16" />
      <path d="M2 12H22" />
    </g>
  </symbol>

  <symbol id="short-arrow-right" viewBox="0 0 24 24" fill="none">
    <g stroke="currentColor" stroke-width="1" stroke-linecap="round" stroke-linejoin="round">
      <path d="m9 18 6-6-6-6" />

    </g>
  </symbol>

  <symbol id="presentation" viewBox="0 0 24 24" fill="none">
    <g stroke="currentColor" stroke-width="1" stroke-linecap="round" stroke-linejoin="round">
      <path d="M2 3h20" />
      <path d="M21 3v11a2 2 0 0 1-2 2H5a2 2 0 0 1-2-2V3" />
      <path d="m7 21 5-5 5 5" />
    </g>
  </symbol>


  <symbol id="panels" viewBox="5 15 200 95" fill="none">


    <g stroke="currentColor" stroke-width="6" stroke-linecap="round" stroke-linejoin="round">
      <path d="M40 20 H180 L201 90 H10 Z" />
      <line x1="31" y1="43" x2="185" y2="43" />
      <line x1="21" y1="66" x2="193" y2="66" />
      <line x1="72" y1="20" x2="58" y2="90" />
      <line x1="110" y1="20" x2="105" y2="90" />
      <line x1="148" y1="20" x2="152" y2="90" />
      <line x1="45" y1="91" x2="45" y2="100" />
      <line x1="33" y1="100" x2="56" y2="100" />
      <line x1="165" y1="90" x2="165" y2="100" />
      <line x1="152" y1="100" x2="178" y2="100" />
    </g>


  </symbol>

  <symbol id="phone" viewBox="0 0 24 24" fill="none">
    <g stroke="currentColor" stroke-width="1" stroke-linecap="round" stroke-linejoin="round">
      <path
        d="M13.832 16.568a1 1 0 0 0 1.213-.303l.355-.465A2 2 0 0 1 17 15h3a2 2 0 0 1 2 2v3a2 2 0 0 1-2 2A18 18 0 0 1 2 4a2 2 0 0 1 2-2h3a2 2 0 0 1 2 2v3a2 2 0 0 1-.8 1.6l-.468.351a1 1 0 0 0-.292 1.233 14 14 0 0 0 6.392 6.384" />
    </g>
  </symbol>

  <symbol id="mail" viewBox="0 0 24 24" fill="none">
    <g stroke="currentColor" stroke-width="1" stroke-linecap="round" stroke-linejoin="round">
      <path d="m22 7-8.991 5.727a2 2 0 0 1-2.009 0L2 7" />
      <rect x="2" y="4" width="20" height="16" rx="2" />
    </g>
  </symbol>

  <symbol id="instagram" viewBox="0 0 32 32" fill="none">
    <g stroke="CurrentColor" stroke-width="2" stroke-linecap="round" stroke-linejoin="round"
      stroke-miterlimit="10">
      <path class="st0"
        d="M23,31H9c-4.4,0-8-3.6-8-8V9c0-4.4,3.6-8,8-8h14c4.4,0,8,3.6,8,8v14C31,27.4,27.4,31,23,31z" />
      <circle class="st0" cx="16" cy="16" r="7" />
      <circle class="st0" cx="24" cy="7" r="1" />
    </g>
  </symbol>

  <symbol id="facebook" viewBox="0 0 32 32" fill="none">
    <g stroke="CurrentColor" stroke-width="2" stroke-linecap="round" stroke-linejoin="round"
      stroke-miterlimit="10">

      <path class="st0"
        d="M23,31H9c-4.4,0-8-3.6-8-8V9c0-4.4,3.6-8,8-8h14c4.4,0,8,3.6,8,8v14C31,27.4,27.4,31,23,31z" />
      <path class="st0"
        d="M26,16h-5v-2.8c0-0.7,0.5-1.2,1.2-1.2H25V7h-4h0c-2.8,0-5,2.2-5,5v0v4h-4v5h4v10h5V21h3L26,16z" />
    </g>
  </symbol>


</svg>